<svg width="96" height="96" viewBox="0 0 96 96" fill="none" xmlns="http://www.w3.org/2000/svg">
  <circle cx="48" cy="48" r="42" fill="url(#g1)"/>
  <path d="M48 22L76 34L48 46L20 34L48 22Z" fill="#ffffff"/>
  <path d="M30 42V52C30 60 38 66 48 66C58 66 66 60 66 52V42L48 50L30 42Z" fill="#ffffff" fill-opacity="0.95"/>
  <circle cx="68" cy="63" r="10" fill="#FFB347"/>
  <path d="M68 57L70 62H76L71 65L73 70L68 67L63 70L65 65L60 62H66L68 57Z" fill="#ffffff"/>
  <defs>
    <linearGradient id="g1" x1="14" y1="12" x2="82" y2="86" gradientUnits="userSpaceOnUse">
      <stop stop-color="#2B7DFA"/>
      <stop offset="1" stop-color="#14B8A6"/>
    </linearGradient>
  </defs>
</svg>
